<mxfile host="app.diagrams.net" agent="Mozilla/5.0 (Windows NT 10.0; Win64; x64) AppleWebKit/537.36 (KHTML, like Gecko) Chrome/134.0.0.0 Safari/537.36" version="26.1.1">
  <diagram name="Página-1" id="ZVr4QiJu2ydi6M_REf2D">
    <mxGraphModel dx="2427" dy="726" grid="1" gridSize="10" guides="1" tooltips="1" connect="1" arrows="1" fold="1" page="1" pageScale="1" pageWidth="827" pageHeight="1169" math="0" shadow="0">
      <root>
        <mxCell id="0" />
        <mxCell id="1" parent="0" />
        <mxCell id="UZxNiqt5XXJOrxXMDr7Z-1" value="1. Cálculo do Volume de um Recipiente Cilíndrico" style="text;html=1;align=center;verticalAlign=middle;resizable=0;points=[];autosize=1;strokeColor=none;fillColor=none;" vertex="1" parent="1">
          <mxGeometry y="20" width="290" height="30" as="geometry" />
        </mxCell>
        <mxCell id="UZxNiqt5XXJOrxXMDr7Z-6" value="" style="edgeStyle=orthogonalEdgeStyle;rounded=0;orthogonalLoop=1;jettySize=auto;html=1;" edge="1" parent="1" source="UZxNiqt5XXJOrxXMDr7Z-2" target="UZxNiqt5XXJOrxXMDr7Z-3">
          <mxGeometry relative="1" as="geometry" />
        </mxCell>
        <mxCell id="UZxNiqt5XXJOrxXMDr7Z-2" value="Inicio" style="rounded=1;whiteSpace=wrap;html=1;" vertex="1" parent="1">
          <mxGeometry x="80" y="60" width="120" height="60" as="geometry" />
        </mxCell>
        <mxCell id="UZxNiqt5XXJOrxXMDr7Z-7" value="" style="edgeStyle=orthogonalEdgeStyle;rounded=0;orthogonalLoop=1;jettySize=auto;html=1;" edge="1" parent="1" source="UZxNiqt5XXJOrxXMDr7Z-3" target="UZxNiqt5XXJOrxXMDr7Z-4">
          <mxGeometry relative="1" as="geometry" />
        </mxCell>
        <mxCell id="UZxNiqt5XXJOrxXMDr7Z-3" value="Recebe raio e altura do cilindro" style="html=1;strokeWidth=2;shape=manualInput;whiteSpace=wrap;rounded=1;size=26;arcSize=11;" vertex="1" parent="1">
          <mxGeometry x="90" y="160" width="100" height="60" as="geometry" />
        </mxCell>
        <mxCell id="UZxNiqt5XXJOrxXMDr7Z-8" value="" style="edgeStyle=orthogonalEdgeStyle;rounded=0;orthogonalLoop=1;jettySize=auto;html=1;" edge="1" parent="1" source="UZxNiqt5XXJOrxXMDr7Z-4" target="UZxNiqt5XXJOrxXMDr7Z-5">
          <mxGeometry relative="1" as="geometry" />
        </mxCell>
        <mxCell id="UZxNiqt5XXJOrxXMDr7Z-4" value="&lt;div style=&quot;text-align: start;&quot;&gt;Aplica a fórmula Volume = 3.14 * Raio^2 * Altura&lt;/div&gt;" style="rounded=0;whiteSpace=wrap;html=1;" vertex="1" parent="1">
          <mxGeometry x="-5" y="270" width="290" height="60" as="geometry" />
        </mxCell>
        <mxCell id="UZxNiqt5XXJOrxXMDr7Z-10" value="" style="edgeStyle=orthogonalEdgeStyle;rounded=0;orthogonalLoop=1;jettySize=auto;html=1;" edge="1" parent="1" source="UZxNiqt5XXJOrxXMDr7Z-5" target="UZxNiqt5XXJOrxXMDr7Z-9">
          <mxGeometry relative="1" as="geometry" />
        </mxCell>
        <mxCell id="UZxNiqt5XXJOrxXMDr7Z-5" value="Exibe o volume calculado" style="shape=display;whiteSpace=wrap;html=1;" vertex="1" parent="1">
          <mxGeometry x="100" y="370" width="80" height="40" as="geometry" />
        </mxCell>
        <mxCell id="UZxNiqt5XXJOrxXMDr7Z-9" value="Fim" style="rounded=1;whiteSpace=wrap;html=1;" vertex="1" parent="1">
          <mxGeometry x="80" y="460" width="120" height="60" as="geometry" />
        </mxCell>
        <mxCell id="UZxNiqt5XXJOrxXMDr7Z-11" value="2. Conversão de Fahrenheit para Celsius" style="text;html=1;align=center;verticalAlign=middle;resizable=0;points=[];autosize=1;strokeColor=none;fillColor=none;" vertex="1" parent="1">
          <mxGeometry x="294" y="20" width="240" height="30" as="geometry" />
        </mxCell>
        <mxCell id="UZxNiqt5XXJOrxXMDr7Z-12" value="" style="edgeStyle=orthogonalEdgeStyle;rounded=0;orthogonalLoop=1;jettySize=auto;html=1;" edge="1" parent="1" source="UZxNiqt5XXJOrxXMDr7Z-13" target="UZxNiqt5XXJOrxXMDr7Z-15">
          <mxGeometry relative="1" as="geometry" />
        </mxCell>
        <mxCell id="UZxNiqt5XXJOrxXMDr7Z-13" value="Inicio" style="rounded=1;whiteSpace=wrap;html=1;" vertex="1" parent="1">
          <mxGeometry x="354" y="50" width="120" height="60" as="geometry" />
        </mxCell>
        <mxCell id="UZxNiqt5XXJOrxXMDr7Z-14" value="" style="edgeStyle=orthogonalEdgeStyle;rounded=0;orthogonalLoop=1;jettySize=auto;html=1;" edge="1" parent="1" source="UZxNiqt5XXJOrxXMDr7Z-15" target="UZxNiqt5XXJOrxXMDr7Z-17">
          <mxGeometry relative="1" as="geometry" />
        </mxCell>
        <mxCell id="UZxNiqt5XXJOrxXMDr7Z-15" value="Recebe temperatura em Fahrenheit" style="html=1;strokeWidth=2;shape=manualInput;whiteSpace=wrap;rounded=1;size=26;arcSize=11;" vertex="1" parent="1">
          <mxGeometry x="364" y="150" width="100" height="60" as="geometry" />
        </mxCell>
        <mxCell id="UZxNiqt5XXJOrxXMDr7Z-24" value="" style="edgeStyle=orthogonalEdgeStyle;rounded=0;orthogonalLoop=1;jettySize=auto;html=1;" edge="1" parent="1" source="UZxNiqt5XXJOrxXMDr7Z-17" target="UZxNiqt5XXJOrxXMDr7Z-23">
          <mxGeometry relative="1" as="geometry" />
        </mxCell>
        <mxCell id="UZxNiqt5XXJOrxXMDr7Z-17" value="&lt;div style=&quot;text-align: start;&quot;&gt;Aplica a fórmula C = ( F − 32 ) × 5/9&amp;nbsp;&lt;/div&gt;" style="rounded=0;whiteSpace=wrap;html=1;" vertex="1" parent="1">
          <mxGeometry x="306" y="260" width="216" height="60" as="geometry" />
        </mxCell>
        <mxCell id="UZxNiqt5XXJOrxXMDr7Z-20" value="Fim" style="rounded=1;whiteSpace=wrap;html=1;" vertex="1" parent="1">
          <mxGeometry x="364" y="720" width="120" height="60" as="geometry" />
        </mxCell>
        <mxCell id="UZxNiqt5XXJOrxXMDr7Z-31" value="" style="edgeStyle=orthogonalEdgeStyle;rounded=0;orthogonalLoop=1;jettySize=auto;html=1;" edge="1" parent="1" source="UZxNiqt5XXJOrxXMDr7Z-23" target="UZxNiqt5XXJOrxXMDr7Z-26">
          <mxGeometry relative="1" as="geometry" />
        </mxCell>
        <mxCell id="UZxNiqt5XXJOrxXMDr7Z-23" value="&lt;span style=&quot;text-align: left;&quot;&gt;Exibe a temperatura em Celsius&lt;/span&gt;" style="shape=display;whiteSpace=wrap;html=1;" vertex="1" parent="1">
          <mxGeometry x="374" y="360" width="80" height="40" as="geometry" />
        </mxCell>
        <mxCell id="UZxNiqt5XXJOrxXMDr7Z-33" value="" style="edgeStyle=orthogonalEdgeStyle;rounded=0;orthogonalLoop=1;jettySize=auto;html=1;" edge="1" parent="1" source="UZxNiqt5XXJOrxXMDr7Z-25" target="UZxNiqt5XXJOrxXMDr7Z-29">
          <mxGeometry relative="1" as="geometry" />
        </mxCell>
        <mxCell id="UZxNiqt5XXJOrxXMDr7Z-39" value="sim" style="edgeLabel;html=1;align=center;verticalAlign=middle;resizable=0;points=[];" vertex="1" connectable="0" parent="UZxNiqt5XXJOrxXMDr7Z-33">
          <mxGeometry x="-0.6931" y="-2" relative="1" as="geometry">
            <mxPoint as="offset" />
          </mxGeometry>
        </mxCell>
        <mxCell id="UZxNiqt5XXJOrxXMDr7Z-25" value="&lt;span style=&quot;text-align: left;&quot;&gt;17°C a 25°C&lt;/span&gt;" style="strokeWidth=2;html=1;shape=mxgraph.flowchart.decision;whiteSpace=wrap;" vertex="1" parent="1">
          <mxGeometry x="344" y="430" width="100" height="100" as="geometry" />
        </mxCell>
        <mxCell id="UZxNiqt5XXJOrxXMDr7Z-32" value="" style="edgeStyle=orthogonalEdgeStyle;rounded=0;orthogonalLoop=1;jettySize=auto;html=1;" edge="1" parent="1" source="UZxNiqt5XXJOrxXMDr7Z-26" target="UZxNiqt5XXJOrxXMDr7Z-28">
          <mxGeometry relative="1" as="geometry" />
        </mxCell>
        <mxCell id="UZxNiqt5XXJOrxXMDr7Z-37" value="sim" style="edgeLabel;html=1;align=center;verticalAlign=middle;resizable=0;points=[];" vertex="1" connectable="0" parent="UZxNiqt5XXJOrxXMDr7Z-32">
          <mxGeometry x="-0.177" relative="1" as="geometry">
            <mxPoint as="offset" />
          </mxGeometry>
        </mxCell>
        <mxCell id="UZxNiqt5XXJOrxXMDr7Z-36" value="" style="edgeStyle=orthogonalEdgeStyle;rounded=0;orthogonalLoop=1;jettySize=auto;html=1;exitX=0.79;exitY=0.746;exitDx=0;exitDy=0;exitPerimeter=0;entryX=0;entryY=0.5;entryDx=0;entryDy=0;entryPerimeter=0;" edge="1" parent="1" source="UZxNiqt5XXJOrxXMDr7Z-26" target="UZxNiqt5XXJOrxXMDr7Z-25">
          <mxGeometry relative="1" as="geometry">
            <Array as="points">
              <mxPoint x="330" y="425" />
              <mxPoint x="330" y="430" />
              <mxPoint x="344" y="430" />
            </Array>
          </mxGeometry>
        </mxCell>
        <mxCell id="UZxNiqt5XXJOrxXMDr7Z-38" value="não" style="edgeLabel;html=1;align=center;verticalAlign=middle;resizable=0;points=[];" vertex="1" connectable="0" parent="UZxNiqt5XXJOrxXMDr7Z-36">
          <mxGeometry x="0.1073" y="-1" relative="1" as="geometry">
            <mxPoint as="offset" />
          </mxGeometry>
        </mxCell>
        <mxCell id="UZxNiqt5XXJOrxXMDr7Z-26" value="&amp;lt;17&lt;span style=&quot;text-align: left;&quot;&gt;°C&lt;/span&gt;" style="strokeWidth=2;html=1;shape=mxgraph.flowchart.decision;whiteSpace=wrap;" vertex="1" parent="1">
          <mxGeometry x="244" y="350" width="100" height="100" as="geometry" />
        </mxCell>
        <mxCell id="UZxNiqt5XXJOrxXMDr7Z-34" value="" style="edgeStyle=orthogonalEdgeStyle;rounded=0;orthogonalLoop=1;jettySize=auto;html=1;exitX=0.467;exitY=1.083;exitDx=0;exitDy=0;exitPerimeter=0;" edge="1" parent="1" source="UZxNiqt5XXJOrxXMDr7Z-41" target="UZxNiqt5XXJOrxXMDr7Z-30">
          <mxGeometry relative="1" as="geometry">
            <mxPoint x="490" y="610.0000000000001" as="sourcePoint" />
          </mxGeometry>
        </mxCell>
        <mxCell id="UZxNiqt5XXJOrxXMDr7Z-28" value="Exibir &quot;frio&quot;" style="shape=display;whiteSpace=wrap;html=1;" vertex="1" parent="1">
          <mxGeometry x="254" y="520" width="80" height="40" as="geometry" />
        </mxCell>
        <mxCell id="UZxNiqt5XXJOrxXMDr7Z-29" value="Exibir &quot;agradável&quot;" style="shape=display;whiteSpace=wrap;html=1;" vertex="1" parent="1">
          <mxGeometry x="344" y="590" width="80" height="40" as="geometry" />
        </mxCell>
        <mxCell id="UZxNiqt5XXJOrxXMDr7Z-44" style="edgeStyle=orthogonalEdgeStyle;rounded=0;orthogonalLoop=1;jettySize=auto;html=1;entryX=1;entryY=0;entryDx=0;entryDy=0;" edge="1" parent="1" source="UZxNiqt5XXJOrxXMDr7Z-30" target="UZxNiqt5XXJOrxXMDr7Z-20">
          <mxGeometry relative="1" as="geometry" />
        </mxCell>
        <mxCell id="UZxNiqt5XXJOrxXMDr7Z-30" value="Exibir &quot;calor&quot;" style="shape=display;whiteSpace=wrap;html=1;" vertex="1" parent="1">
          <mxGeometry x="450" y="640" width="80" height="40" as="geometry" />
        </mxCell>
        <mxCell id="UZxNiqt5XXJOrxXMDr7Z-35" style="edgeStyle=orthogonalEdgeStyle;rounded=0;orthogonalLoop=1;jettySize=auto;html=1;" edge="1" parent="1" source="UZxNiqt5XXJOrxXMDr7Z-25">
          <mxGeometry relative="1" as="geometry">
            <mxPoint x="490" y="520" as="targetPoint" />
            <Array as="points">
              <mxPoint x="464" y="480" />
              <mxPoint x="464" y="490" />
              <mxPoint x="490" y="490" />
            </Array>
          </mxGeometry>
        </mxCell>
        <mxCell id="UZxNiqt5XXJOrxXMDr7Z-40" value="não" style="edgeLabel;html=1;align=center;verticalAlign=middle;resizable=0;points=[];" vertex="1" connectable="0" parent="UZxNiqt5XXJOrxXMDr7Z-35">
          <mxGeometry x="-0.0335" y="2" relative="1" as="geometry">
            <mxPoint as="offset" />
          </mxGeometry>
        </mxCell>
        <mxCell id="UZxNiqt5XXJOrxXMDr7Z-41" value="&lt;span style=&quot;text-align: left;&quot;&gt;&amp;gt;25°C&lt;/span&gt;" style="rounded=0;whiteSpace=wrap;html=1;" vertex="1" parent="1">
          <mxGeometry x="424" y="525" width="120" height="60" as="geometry" />
        </mxCell>
        <mxCell id="UZxNiqt5XXJOrxXMDr7Z-42" style="edgeStyle=orthogonalEdgeStyle;rounded=0;orthogonalLoop=1;jettySize=auto;html=1;exitX=0;exitY=0;exitDx=40;exitDy=40;exitPerimeter=0;entryX=0.008;entryY=0.636;entryDx=0;entryDy=0;entryPerimeter=0;" edge="1" parent="1" source="UZxNiqt5XXJOrxXMDr7Z-28" target="UZxNiqt5XXJOrxXMDr7Z-20">
          <mxGeometry relative="1" as="geometry" />
        </mxCell>
        <mxCell id="UZxNiqt5XXJOrxXMDr7Z-43" style="edgeStyle=orthogonalEdgeStyle;rounded=0;orthogonalLoop=1;jettySize=auto;html=1;entryX=0.212;entryY=0.045;entryDx=0;entryDy=0;entryPerimeter=0;" edge="1" parent="1" source="UZxNiqt5XXJOrxXMDr7Z-29" target="UZxNiqt5XXJOrxXMDr7Z-20">
          <mxGeometry relative="1" as="geometry" />
        </mxCell>
        <mxCell id="UZxNiqt5XXJOrxXMDr7Z-45" value="&lt;h3 style=&quot;line-height: 1.5; margin: calc(var(--ds-md-zoom)*16px)0 calc(var(--ds-md-zoom)*12px)0;&quot;&gt;3.&amp;nbsp;Cálculo de Combustível Gasto em uma Viagem&lt;/h3&gt;" style="text;html=1;align=center;verticalAlign=middle;resizable=0;points=[];autosize=1;strokeColor=none;fillColor=none;" vertex="1" parent="1">
          <mxGeometry x="580" y="20" width="350" height="30" as="geometry" />
        </mxCell>
        <mxCell id="UZxNiqt5XXJOrxXMDr7Z-46" value="" style="edgeStyle=orthogonalEdgeStyle;rounded=0;orthogonalLoop=1;jettySize=auto;html=1;" edge="1" parent="1" source="UZxNiqt5XXJOrxXMDr7Z-47" target="UZxNiqt5XXJOrxXMDr7Z-49">
          <mxGeometry relative="1" as="geometry" />
        </mxCell>
        <mxCell id="UZxNiqt5XXJOrxXMDr7Z-47" value="Inicio" style="rounded=1;whiteSpace=wrap;html=1;" vertex="1" parent="1">
          <mxGeometry x="695" y="50" width="120" height="60" as="geometry" />
        </mxCell>
        <mxCell id="UZxNiqt5XXJOrxXMDr7Z-48" value="" style="edgeStyle=orthogonalEdgeStyle;rounded=0;orthogonalLoop=1;jettySize=auto;html=1;" edge="1" parent="1" source="UZxNiqt5XXJOrxXMDr7Z-49" target="UZxNiqt5XXJOrxXMDr7Z-51">
          <mxGeometry relative="1" as="geometry" />
        </mxCell>
        <mxCell id="UZxNiqt5XXJOrxXMDr7Z-49" value="Recebe t&lt;span style=&quot;text-align: left;&quot;&gt;empo gasto e velocidade média&lt;/span&gt;" style="html=1;strokeWidth=2;shape=manualInput;whiteSpace=wrap;rounded=1;size=26;arcSize=11;" vertex="1" parent="1">
          <mxGeometry x="705" y="150" width="100" height="60" as="geometry" />
        </mxCell>
        <mxCell id="UZxNiqt5XXJOrxXMDr7Z-56" value="" style="edgeStyle=orthogonalEdgeStyle;rounded=0;orthogonalLoop=1;jettySize=auto;html=1;" edge="1" parent="1" source="UZxNiqt5XXJOrxXMDr7Z-51" target="UZxNiqt5XXJOrxXMDr7Z-55">
          <mxGeometry relative="1" as="geometry" />
        </mxCell>
        <mxCell id="UZxNiqt5XXJOrxXMDr7Z-51" value="&lt;div style=&quot;&quot;&gt;Calcula a distância percorrida ( distancia = velocidade media * tempo)&lt;/div&gt;" style="rounded=0;whiteSpace=wrap;html=1;" vertex="1" parent="1">
          <mxGeometry x="555" y="260" width="400" height="60" as="geometry" />
        </mxCell>
        <mxCell id="UZxNiqt5XXJOrxXMDr7Z-52" value="" style="edgeStyle=orthogonalEdgeStyle;rounded=0;orthogonalLoop=1;jettySize=auto;html=1;" edge="1" parent="1" source="UZxNiqt5XXJOrxXMDr7Z-53" target="UZxNiqt5XXJOrxXMDr7Z-54">
          <mxGeometry relative="1" as="geometry" />
        </mxCell>
        <mxCell id="UZxNiqt5XXJOrxXMDr7Z-53" value="&lt;span style=&quot;text-align: left;&quot;&gt;&amp;nbsp;Exibe a quantidade de combustível gasto&lt;/span&gt;" style="shape=display;whiteSpace=wrap;html=1;" vertex="1" parent="1">
          <mxGeometry x="715" y="510" width="80" height="40" as="geometry" />
        </mxCell>
        <mxCell id="UZxNiqt5XXJOrxXMDr7Z-54" value="Fim" style="rounded=1;whiteSpace=wrap;html=1;" vertex="1" parent="1">
          <mxGeometry x="695" y="590" width="120" height="60" as="geometry" />
        </mxCell>
        <mxCell id="UZxNiqt5XXJOrxXMDr7Z-57" value="" style="edgeStyle=orthogonalEdgeStyle;rounded=0;orthogonalLoop=1;jettySize=auto;html=1;" edge="1" parent="1" source="UZxNiqt5XXJOrxXMDr7Z-55" target="UZxNiqt5XXJOrxXMDr7Z-53">
          <mxGeometry relative="1" as="geometry" />
        </mxCell>
        <mxCell id="UZxNiqt5XXJOrxXMDr7Z-55" value="Calcula&amp;nbsp;combustível gasto ( Combustível = Distancia/12)" style="rounded=0;whiteSpace=wrap;html=1;" vertex="1" parent="1">
          <mxGeometry x="592.5" y="400" width="325" height="60" as="geometry" />
        </mxCell>
        <mxCell id="UZxNiqt5XXJOrxXMDr7Z-59" value="&lt;h3 style=&quot;line-height: 1.5; margin: calc(var(--ds-md-zoom)*16px)0 calc(var(--ds-md-zoom)*12px)0;&quot;&gt;4.&amp;nbsp;Cálculo de Área e Tinta para Pintura de uma Sala&lt;/h3&gt;" style="text;html=1;align=center;verticalAlign=middle;resizable=0;points=[];autosize=1;strokeColor=none;fillColor=none;" vertex="1" parent="1">
          <mxGeometry x="980" y="20" width="370" height="30" as="geometry" />
        </mxCell>
        <mxCell id="UZxNiqt5XXJOrxXMDr7Z-60" value="" style="edgeStyle=orthogonalEdgeStyle;rounded=0;orthogonalLoop=1;jettySize=auto;html=1;" edge="1" parent="1" source="UZxNiqt5XXJOrxXMDr7Z-61" target="UZxNiqt5XXJOrxXMDr7Z-63">
          <mxGeometry relative="1" as="geometry" />
        </mxCell>
        <mxCell id="UZxNiqt5XXJOrxXMDr7Z-61" value="Inicio" style="rounded=1;whiteSpace=wrap;html=1;" vertex="1" parent="1">
          <mxGeometry x="1120" y="50" width="120" height="60" as="geometry" />
        </mxCell>
        <mxCell id="UZxNiqt5XXJOrxXMDr7Z-62" value="" style="edgeStyle=orthogonalEdgeStyle;rounded=0;orthogonalLoop=1;jettySize=auto;html=1;entryX=0.5;entryY=0;entryDx=0;entryDy=0;" edge="1" parent="1" source="UZxNiqt5XXJOrxXMDr7Z-63" target="UZxNiqt5XXJOrxXMDr7Z-72">
          <mxGeometry relative="1" as="geometry">
            <mxPoint x="1190" y="270" as="targetPoint" />
          </mxGeometry>
        </mxCell>
        <mxCell id="UZxNiqt5XXJOrxXMDr7Z-63" value="Recebe&amp;nbsp;&lt;span style=&quot;text-align: left;&quot;&gt;Largura da parede maior, altura da parede, largura da parede menor&lt;/span&gt;" style="html=1;strokeWidth=2;shape=manualInput;whiteSpace=wrap;rounded=1;size=26;arcSize=11;" vertex="1" parent="1">
          <mxGeometry x="1130" y="150" width="100" height="60" as="geometry" />
        </mxCell>
        <mxCell id="UZxNiqt5XXJOrxXMDr7Z-64" value="" style="edgeStyle=orthogonalEdgeStyle;rounded=0;orthogonalLoop=1;jettySize=auto;html=1;" edge="1" parent="1" source="UZxNiqt5XXJOrxXMDr7Z-72" target="UZxNiqt5XXJOrxXMDr7Z-74">
          <mxGeometry relative="1" as="geometry">
            <mxPoint x="1190" y="330" as="sourcePoint" />
            <mxPoint x="1180" y="400" as="targetPoint" />
          </mxGeometry>
        </mxCell>
        <mxCell id="UZxNiqt5XXJOrxXMDr7Z-66" value="" style="edgeStyle=orthogonalEdgeStyle;rounded=0;orthogonalLoop=1;jettySize=auto;html=1;" edge="1" parent="1" source="UZxNiqt5XXJOrxXMDr7Z-67" target="UZxNiqt5XXJOrxXMDr7Z-68">
          <mxGeometry relative="1" as="geometry" />
        </mxCell>
        <mxCell id="UZxNiqt5XXJOrxXMDr7Z-67" value="&lt;span style=&quot;text-align: left;&quot;&gt;&amp;nbsp;Exibe a quantidade de latas&lt;/span&gt;" style="shape=display;whiteSpace=wrap;html=1;" vertex="1" parent="1">
          <mxGeometry x="1140" y="720" width="80" height="40" as="geometry" />
        </mxCell>
        <mxCell id="UZxNiqt5XXJOrxXMDr7Z-68" value="Fim" style="rounded=1;whiteSpace=wrap;html=1;" vertex="1" parent="1">
          <mxGeometry x="1120" y="810" width="120" height="60" as="geometry" />
        </mxCell>
        <mxCell id="UZxNiqt5XXJOrxXMDr7Z-72" value="&lt;div style=&quot;text-align: left;&quot;&gt;Calcula area maior = 2 × (Largura maior × Altura)&lt;/div&gt;" style="rounded=0;whiteSpace=wrap;html=1;" vertex="1" parent="1">
          <mxGeometry x="1035" y="270" width="290" height="60" as="geometry" />
        </mxCell>
        <mxCell id="UZxNiqt5XXJOrxXMDr7Z-76" value="" style="edgeStyle=orthogonalEdgeStyle;rounded=0;orthogonalLoop=1;jettySize=auto;html=1;" edge="1" parent="1" source="UZxNiqt5XXJOrxXMDr7Z-74" target="UZxNiqt5XXJOrxXMDr7Z-75">
          <mxGeometry relative="1" as="geometry" />
        </mxCell>
        <mxCell id="UZxNiqt5XXJOrxXMDr7Z-74" value="Calcular area menor = 2 × (Largura menor × Altura)" style="rounded=0;whiteSpace=wrap;html=1;" vertex="1" parent="1">
          <mxGeometry x="1025" y="360" width="310" height="60" as="geometry" />
        </mxCell>
        <mxCell id="UZxNiqt5XXJOrxXMDr7Z-78" value="" style="edgeStyle=orthogonalEdgeStyle;rounded=0;orthogonalLoop=1;jettySize=auto;html=1;" edge="1" parent="1" source="UZxNiqt5XXJOrxXMDr7Z-75" target="UZxNiqt5XXJOrxXMDr7Z-77">
          <mxGeometry relative="1" as="geometry" />
        </mxCell>
        <mxCell id="UZxNiqt5XXJOrxXMDr7Z-75" value="Calcular a&lt;span style=&quot;text-align: left;&quot;&gt;rea do teto = Largura maior × Largura menor&lt;/span&gt;" style="rounded=0;whiteSpace=wrap;html=1;" vertex="1" parent="1">
          <mxGeometry x="1020.5" y="440" width="319" height="60" as="geometry" />
        </mxCell>
        <mxCell id="UZxNiqt5XXJOrxXMDr7Z-80" value="" style="edgeStyle=orthogonalEdgeStyle;rounded=0;orthogonalLoop=1;jettySize=auto;html=1;" edge="1" parent="1" source="UZxNiqt5XXJOrxXMDr7Z-77" target="UZxNiqt5XXJOrxXMDr7Z-79">
          <mxGeometry relative="1" as="geometry" />
        </mxCell>
        <mxCell id="UZxNiqt5XXJOrxXMDr7Z-77" value="Calcula&amp;nbsp;&lt;span style=&quot;text-align: left;&quot;&gt;&amp;nbsp;area total = Área maior + Área menor + Área do teto&lt;/span&gt;" style="rounded=0;whiteSpace=wrap;html=1;" vertex="1" parent="1">
          <mxGeometry x="1002.5" y="525" width="355" height="60" as="geometry" />
        </mxCell>
        <mxCell id="UZxNiqt5XXJOrxXMDr7Z-81" value="" style="edgeStyle=orthogonalEdgeStyle;rounded=0;orthogonalLoop=1;jettySize=auto;html=1;" edge="1" parent="1" source="UZxNiqt5XXJOrxXMDr7Z-79" target="UZxNiqt5XXJOrxXMDr7Z-67">
          <mxGeometry relative="1" as="geometry" />
        </mxCell>
        <mxCell id="UZxNiqt5XXJOrxXMDr7Z-79" value="&lt;div style=&quot;&quot;&gt;Calcula numero de latas =&amp;nbsp;&amp;nbsp;area total / 12 (arredondado para cima)&lt;/div&gt;" style="rounded=0;whiteSpace=wrap;html=1;" vertex="1" parent="1">
          <mxGeometry x="1002.5" y="620" width="355" height="60" as="geometry" />
        </mxCell>
        <mxCell id="UZxNiqt5XXJOrxXMDr7Z-83" value="&lt;h3 style=&quot;line-height: 1.5; margin: calc(var(--ds-md-zoom)*16px)0 calc(var(--ds-md-zoom)*12px)0;&quot;&gt;5.&amp;nbsp;Troca de Valores entre Variáveis A e B&lt;/h3&gt;" style="text;html=1;align=center;verticalAlign=middle;resizable=0;points=[];autosize=1;strokeColor=none;fillColor=none;" vertex="1" parent="1">
          <mxGeometry x="1375" y="28" width="290" height="30" as="geometry" />
        </mxCell>
        <mxCell id="UZxNiqt5XXJOrxXMDr7Z-84" value="" style="edgeStyle=orthogonalEdgeStyle;rounded=0;orthogonalLoop=1;jettySize=auto;html=1;" edge="1" parent="1" source="UZxNiqt5XXJOrxXMDr7Z-85" target="UZxNiqt5XXJOrxXMDr7Z-87">
          <mxGeometry relative="1" as="geometry" />
        </mxCell>
        <mxCell id="UZxNiqt5XXJOrxXMDr7Z-85" value="Inicio" style="rounded=1;whiteSpace=wrap;html=1;" vertex="1" parent="1">
          <mxGeometry x="1470" y="70" width="120" height="60" as="geometry" />
        </mxCell>
        <mxCell id="UZxNiqt5XXJOrxXMDr7Z-99" value="" style="edgeStyle=orthogonalEdgeStyle;rounded=0;orthogonalLoop=1;jettySize=auto;html=1;" edge="1" parent="1" source="UZxNiqt5XXJOrxXMDr7Z-87" target="UZxNiqt5XXJOrxXMDr7Z-98">
          <mxGeometry relative="1" as="geometry" />
        </mxCell>
        <mxCell id="UZxNiqt5XXJOrxXMDr7Z-87" value="Recebe v&lt;span style=&quot;background-color: transparent; color: light-dark(rgb(0, 0, 0), rgb(255, 255, 255));&quot;&gt;alores das variáveis A e B&lt;/span&gt;" style="html=1;strokeWidth=2;shape=manualInput;whiteSpace=wrap;rounded=1;size=26;arcSize=11;" vertex="1" parent="1">
          <mxGeometry x="1480" y="170" width="100" height="60" as="geometry" />
        </mxCell>
        <mxCell id="UZxNiqt5XXJOrxXMDr7Z-89" value="" style="edgeStyle=orthogonalEdgeStyle;rounded=0;orthogonalLoop=1;jettySize=auto;html=1;" edge="1" parent="1" source="UZxNiqt5XXJOrxXMDr7Z-90" target="UZxNiqt5XXJOrxXMDr7Z-91">
          <mxGeometry relative="1" as="geometry" />
        </mxCell>
        <mxCell id="UZxNiqt5XXJOrxXMDr7Z-90" value="&lt;span style=&quot;text-align: left;&quot;&gt;Exibe os valores trocados&lt;/span&gt;" style="shape=display;whiteSpace=wrap;html=1;" vertex="1" parent="1">
          <mxGeometry x="1490" y="460" width="80" height="40" as="geometry" />
        </mxCell>
        <mxCell id="UZxNiqt5XXJOrxXMDr7Z-91" value="Fim" style="rounded=1;whiteSpace=wrap;html=1;" vertex="1" parent="1">
          <mxGeometry x="1470" y="540" width="120" height="60" as="geometry" />
        </mxCell>
        <mxCell id="UZxNiqt5XXJOrxXMDr7Z-101" value="" style="edgeStyle=orthogonalEdgeStyle;rounded=0;orthogonalLoop=1;jettySize=auto;html=1;" edge="1" parent="1" source="UZxNiqt5XXJOrxXMDr7Z-92" target="UZxNiqt5XXJOrxXMDr7Z-90">
          <mxGeometry relative="1" as="geometry" />
        </mxCell>
        <mxCell id="UZxNiqt5XXJOrxXMDr7Z-92" value="&lt;div style=&quot;&quot;&gt;Troca os valores de A e B usando uma variável temporária&lt;/div&gt;" style="rounded=0;whiteSpace=wrap;html=1;" vertex="1" parent="1">
          <mxGeometry x="1385" y="360" width="290" height="60" as="geometry" />
        </mxCell>
        <mxCell id="UZxNiqt5XXJOrxXMDr7Z-100" value="" style="edgeStyle=orthogonalEdgeStyle;rounded=0;orthogonalLoop=1;jettySize=auto;html=1;" edge="1" parent="1" source="UZxNiqt5XXJOrxXMDr7Z-98" target="UZxNiqt5XXJOrxXMDr7Z-92">
          <mxGeometry relative="1" as="geometry" />
        </mxCell>
        <mxCell id="UZxNiqt5XXJOrxXMDr7Z-98" value="cria variável temporária" style="html=1;strokeWidth=2;shape=manualInput;whiteSpace=wrap;rounded=1;size=26;arcSize=11;" vertex="1" parent="1">
          <mxGeometry x="1480" y="250" width="100" height="60" as="geometry" />
        </mxCell>
        <mxCell id="UZxNiqt5XXJOrxXMDr7Z-104" value="6. Ordenação de Quatro Números em Ordem Crescente" style="text;whiteSpace=wrap;" vertex="1" parent="1">
          <mxGeometry x="1737" y="23" width="330" height="40" as="geometry" />
        </mxCell>
        <mxCell id="UZxNiqt5XXJOrxXMDr7Z-117" value="" style="edgeStyle=orthogonalEdgeStyle;rounded=0;orthogonalLoop=1;jettySize=auto;html=1;entryX=0.499;entryY=0.314;entryDx=0;entryDy=0;entryPerimeter=0;" edge="1" parent="1" source="UZxNiqt5XXJOrxXMDr7Z-106" target="UZxNiqt5XXJOrxXMDr7Z-108">
          <mxGeometry relative="1" as="geometry" />
        </mxCell>
        <mxCell id="UZxNiqt5XXJOrxXMDr7Z-106" value="Inicio" style="rounded=1;whiteSpace=wrap;html=1;" vertex="1" parent="1">
          <mxGeometry x="1795" y="70" width="120" height="60" as="geometry" />
        </mxCell>
        <mxCell id="UZxNiqt5XXJOrxXMDr7Z-116" value="" style="edgeStyle=orthogonalEdgeStyle;rounded=0;orthogonalLoop=1;jettySize=auto;html=1;" edge="1" parent="1" source="UZxNiqt5XXJOrxXMDr7Z-108" target="UZxNiqt5XXJOrxXMDr7Z-113">
          <mxGeometry relative="1" as="geometry" />
        </mxCell>
        <mxCell id="UZxNiqt5XXJOrxXMDr7Z-108" value="Recebe q&lt;span style=&quot;text-align: left;&quot;&gt;uatro números&lt;/span&gt;" style="html=1;strokeWidth=2;shape=manualInput;whiteSpace=wrap;rounded=1;size=26;arcSize=11;" vertex="1" parent="1">
          <mxGeometry x="1805" y="170" width="100" height="60" as="geometry" />
        </mxCell>
        <mxCell id="UZxNiqt5XXJOrxXMDr7Z-109" value="" style="edgeStyle=orthogonalEdgeStyle;rounded=0;orthogonalLoop=1;jettySize=auto;html=1;" edge="1" parent="1" source="UZxNiqt5XXJOrxXMDr7Z-110" target="UZxNiqt5XXJOrxXMDr7Z-111">
          <mxGeometry relative="1" as="geometry" />
        </mxCell>
        <mxCell id="UZxNiqt5XXJOrxXMDr7Z-110" value="&lt;span style=&quot;text-align: left;&quot;&gt;&amp;nbsp;Exibe os números ordenados&lt;/span&gt;" style="shape=display;whiteSpace=wrap;html=1;" vertex="1" parent="1">
          <mxGeometry x="1815" y="380" width="80" height="40" as="geometry" />
        </mxCell>
        <mxCell id="UZxNiqt5XXJOrxXMDr7Z-111" value="Fim" style="rounded=1;whiteSpace=wrap;html=1;" vertex="1" parent="1">
          <mxGeometry x="1795" y="470" width="120" height="60" as="geometry" />
        </mxCell>
        <mxCell id="UZxNiqt5XXJOrxXMDr7Z-112" value="" style="edgeStyle=orthogonalEdgeStyle;rounded=0;orthogonalLoop=1;jettySize=auto;html=1;" edge="1" parent="1" source="UZxNiqt5XXJOrxXMDr7Z-113" target="UZxNiqt5XXJOrxXMDr7Z-110">
          <mxGeometry relative="1" as="geometry" />
        </mxCell>
        <mxCell id="UZxNiqt5XXJOrxXMDr7Z-113" value="&lt;div style=&quot;&quot;&gt;&lt;span style=&quot;text-align: left;&quot;&gt;Ordena os números em ordem crescente&lt;/span&gt;&lt;/div&gt;" style="rounded=0;whiteSpace=wrap;html=1;" vertex="1" parent="1">
          <mxGeometry x="1710" y="290" width="290" height="60" as="geometry" />
        </mxCell>
        <mxCell id="UZxNiqt5XXJOrxXMDr7Z-119" value="7. Cálculo da Média e Idade da Pessoa Mais Velha" style="text;whiteSpace=wrap;" vertex="1" parent="1">
          <mxGeometry x="2070" y="23" width="310" height="40" as="geometry" />
        </mxCell>
        <mxCell id="UZxNiqt5XXJOrxXMDr7Z-120" value="" style="edgeStyle=orthogonalEdgeStyle;rounded=0;orthogonalLoop=1;jettySize=auto;html=1;entryX=0.499;entryY=0.314;entryDx=0;entryDy=0;entryPerimeter=0;" edge="1" parent="1" source="UZxNiqt5XXJOrxXMDr7Z-121" target="UZxNiqt5XXJOrxXMDr7Z-123">
          <mxGeometry relative="1" as="geometry" />
        </mxCell>
        <mxCell id="UZxNiqt5XXJOrxXMDr7Z-121" value="Inicio" style="rounded=1;whiteSpace=wrap;html=1;" vertex="1" parent="1">
          <mxGeometry x="2145" y="70" width="120" height="60" as="geometry" />
        </mxCell>
        <mxCell id="UZxNiqt5XXJOrxXMDr7Z-122" value="" style="edgeStyle=orthogonalEdgeStyle;rounded=0;orthogonalLoop=1;jettySize=auto;html=1;" edge="1" parent="1" source="UZxNiqt5XXJOrxXMDr7Z-123" target="UZxNiqt5XXJOrxXMDr7Z-128">
          <mxGeometry relative="1" as="geometry" />
        </mxCell>
        <mxCell id="UZxNiqt5XXJOrxXMDr7Z-123" value="Recebe&amp;nbsp;&lt;span style=&quot;text-align: left;&quot;&gt;Idades de 40 pessoas&lt;/span&gt;" style="html=1;strokeWidth=2;shape=manualInput;whiteSpace=wrap;rounded=1;size=26;arcSize=11;" vertex="1" parent="1">
          <mxGeometry x="2155" y="170" width="100" height="60" as="geometry" />
        </mxCell>
        <mxCell id="UZxNiqt5XXJOrxXMDr7Z-124" value="" style="edgeStyle=orthogonalEdgeStyle;rounded=0;orthogonalLoop=1;jettySize=auto;html=1;" edge="1" parent="1" source="UZxNiqt5XXJOrxXMDr7Z-125" target="UZxNiqt5XXJOrxXMDr7Z-126">
          <mxGeometry relative="1" as="geometry" />
        </mxCell>
        <mxCell id="UZxNiqt5XXJOrxXMDr7Z-125" value="&lt;span style=&quot;text-align: left;&quot;&gt;Exibe a média das idades e a idade da pessoa mais velha&lt;/span&gt;" style="shape=display;whiteSpace=wrap;html=1;" vertex="1" parent="1">
          <mxGeometry x="2165" y="525" width="80" height="40" as="geometry" />
        </mxCell>
        <mxCell id="UZxNiqt5XXJOrxXMDr7Z-126" value="Fim" style="rounded=1;whiteSpace=wrap;html=1;" vertex="1" parent="1">
          <mxGeometry x="2145" y="600" width="120" height="60" as="geometry" />
        </mxCell>
        <mxCell id="UZxNiqt5XXJOrxXMDr7Z-131" value="" style="edgeStyle=orthogonalEdgeStyle;rounded=0;orthogonalLoop=1;jettySize=auto;html=1;" edge="1" parent="1" source="UZxNiqt5XXJOrxXMDr7Z-128" target="UZxNiqt5XXJOrxXMDr7Z-129">
          <mxGeometry relative="1" as="geometry" />
        </mxCell>
        <mxCell id="UZxNiqt5XXJOrxXMDr7Z-128" value="&lt;div style=&quot;&quot;&gt;&lt;span style=&quot;text-align: left;&quot;&gt;Calcula a somas de toas as idades&lt;/span&gt;&lt;/div&gt;" style="rounded=0;whiteSpace=wrap;html=1;" vertex="1" parent="1">
          <mxGeometry x="2060" y="290" width="290" height="60" as="geometry" />
        </mxCell>
        <mxCell id="UZxNiqt5XXJOrxXMDr7Z-129" value="&lt;div style=&quot;&quot;&gt;&lt;span style=&quot;text-align: left;&quot;&gt;Calcula a media das idade = soma das idades/40&lt;/span&gt;&lt;/div&gt;" style="rounded=0;whiteSpace=wrap;html=1;" vertex="1" parent="1">
          <mxGeometry x="2060" y="410" width="290" height="60" as="geometry" />
        </mxCell>
        <mxCell id="UZxNiqt5XXJOrxXMDr7Z-130" style="edgeStyle=orthogonalEdgeStyle;rounded=0;orthogonalLoop=1;jettySize=auto;html=1;exitX=0.5;exitY=1;exitDx=0;exitDy=0;entryX=0;entryY=0;entryDx=40;entryDy=0;entryPerimeter=0;" edge="1" parent="1" source="UZxNiqt5XXJOrxXMDr7Z-129" target="UZxNiqt5XXJOrxXMDr7Z-125">
          <mxGeometry relative="1" as="geometry" />
        </mxCell>
      </root>
    </mxGraphModel>
  </diagram>
</mxfile>
